<svg width="24" height="24" viewBox="0 0 24 24" fill="none" xmlns="http://www.w3.org/2000/svg">
<mask id="mask0_210_1628" style="mask-type:alpha" maskUnits="userSpaceOnUse" x="0" y="0" width="24" height="24">
<rect width="24" height="24" fill="#D9D9D9"/>
</mask>
<g mask="url(#mask0_210_1628)">
<path d="M10.5 19.7001L3.75 12.9501C3.61667 12.8168 3.521 12.6708 3.463 12.5121C3.40433 12.3541 3.375 12.1918 3.375 12.0251C3.375 11.8585 3.40433 11.6958 3.463 11.5371C3.521 11.3791 3.61667 11.2335 3.75 11.1001L10.525 4.32512C10.7917 4.05845 11.1043 3.92912 11.463 3.93712C11.821 3.94578 12.1333 4.08345 12.4 4.35012C12.6667 4.61678 12.8 4.93345 12.8 5.30012C12.8 5.66678 12.6667 5.98345 12.4 6.25012L7.95 10.7001H18.75C19.1167 10.7001 19.4293 10.8291 19.688 11.0871C19.946 11.3458 20.075 11.6585 20.075 12.0251C20.075 12.3918 19.946 12.7041 19.688 12.9621C19.4293 13.2208 19.1167 13.3501 18.75 13.3501H7.95L12.425 17.8251C12.6917 18.0918 12.8207 18.4045 12.812 18.7631C12.804 19.1211 12.6667 19.4335 12.4 19.7001C12.1333 19.9668 11.8167 20.1001 11.45 20.1001C11.0833 20.1001 10.7667 19.9668 10.5 19.7001Z" fill="black"/>
</g>
</svg>
