<svg width="25" height="26" viewBox="0 0 25 26" fill="none" xmlns="http://www.w3.org/2000/svg">
<mask id="mask0_842_12280" style="mask-type:alpha" maskUnits="userSpaceOnUse" x="0" y="0" width="25" height="26">
<rect x="25" y="0.5" width="25" height="25" transform="rotate(90 25 0.5)" fill="#D9D9D9"/>
</mask>
<g mask="url(#mask0_842_12280)">
<path d="M9.01058 13.0002C9.01058 12.8613 9.03662 12.7269 9.08871 12.597C9.14079 12.4665 9.21023 12.3578 9.29704 12.271L14.0887 7.47933C14.2797 7.28836 14.5227 7.19287 14.8179 7.19287C15.113 7.19287 15.3561 7.28836 15.547 7.47933C15.738 7.6703 15.8335 7.91336 15.8335 8.2085C15.8335 8.50363 15.738 8.74669 15.547 8.93766L11.4845 13.0002L15.547 17.0627C15.738 17.2536 15.8335 17.4967 15.8335 17.7918C15.8335 18.087 15.738 18.33 15.547 18.521C15.3561 18.712 15.113 18.8075 14.8179 18.8075C14.5227 18.8075 14.2797 18.712 14.0887 18.521L9.29704 13.7293C9.19287 13.6252 9.11926 13.5123 9.07621 13.3908C9.03246 13.2693 9.01058 13.1391 9.01058 13.0002Z" fill="black"/>
</g>
</svg>
