<svg width="25" height="26" viewBox="0 0 25 26" fill="none" xmlns="http://www.w3.org/2000/svg">
<mask id="mask0_842_12283" style="mask-type:alpha" maskUnits="userSpaceOnUse" x="0" y="0" width="25" height="26">
<rect x="25" y="0.5" width="25" height="25" transform="rotate(90 25 0.5)" fill="#444DF2"/>
</mask>
<g mask="url(#mask0_842_12283)">
<path d="M8.22933 13.3775C8.22933 13.2038 8.26405 13.0344 8.3335 12.8691C8.40294 12.7045 8.50711 12.5528 8.646 12.4139L13.4897 7.57016C13.7502 7.30975 14.0759 7.1837 14.4668 7.19204C14.8571 7.20107 15.1825 7.33579 15.4429 7.5962C15.7033 7.85662 15.8335 8.18232 15.8335 8.57329C15.8335 8.96357 15.7033 9.28891 15.4429 9.54933L11.5887 13.3775L15.4429 17.2316C15.7033 17.492 15.8335 17.8174 15.8335 18.2077C15.8335 18.5986 15.7033 18.9243 15.4429 19.1847C15.1825 19.4452 14.8571 19.5754 14.4668 19.5754C14.0759 19.5754 13.7502 19.4452 13.4897 19.1847L8.646 14.341C8.50711 14.2021 8.40294 14.0504 8.3335 13.8858C8.26405 13.7205 8.22933 13.5511 8.22933 13.3775Z" fill="#535AF1"/>
</g>
</svg>
