<svg width="24" height="24" viewBox="0 0 24 24" fill="none" xmlns="http://www.w3.org/2000/svg">
<mask id="mask0_1814_16200" style="mask-type:alpha" maskUnits="userSpaceOnUse" x="0" y="0" width="24" height="24">
<rect width="24" height="24" fill="#D9D9D9"/>
</mask>
<g mask="url(#mask0_1814_16200)">
<path d="M10.6002 13.4L8.6252 11.425C8.3752 11.175 8.06686 11.05 7.7002 11.05C7.33353 11.05 7.0252 11.175 6.7752 11.425C6.5252 11.675 6.4002 11.9833 6.4002 12.35C6.4002 12.7166 6.5252 13.025 6.7752 13.275L9.6752 16.175C9.93883 16.4416 10.2464 16.575 10.5979 16.575C10.9494 16.575 11.2585 16.4416 11.5252 16.175L17.2752 10.425C17.5252 10.175 17.6502 9.86662 17.6502 9.49995C17.6502 9.13328 17.5252 8.82495 17.2752 8.57495C17.0252 8.32495 16.7169 8.19995 16.3502 8.19995C15.9835 8.19995 15.6752 8.32495 15.4252 8.57495L10.6002 13.4ZM12.0002 22.8C10.5062 22.8 9.1022 22.5165 7.7882 21.9495C6.4742 21.3825 5.3312 20.613 4.3592 19.641C3.3872 18.669 2.6177 17.526 2.0507 16.212C1.4837 14.898 1.2002 13.494 1.2002 12C1.2002 10.5017 1.48419 9.09368 2.05217 7.77593C2.62015 6.45816 3.39099 5.31189 4.36467 4.33713C5.33835 3.36234 6.48135 2.59578 7.79365 2.03745C9.10595 1.47912 10.5081 1.19995 12.0002 1.19995C13.4983 1.19995 14.9062 1.47912 16.2238 2.03745C17.5414 2.59578 18.6877 3.36245 19.6627 4.33745C20.6377 5.31245 21.4044 6.45898 21.9627 7.77703C22.521 9.09509 22.8002 10.5034 22.8002 12.002C22.8002 13.5006 22.521 14.9041 21.9627 16.2125C21.4044 17.5208 20.6378 18.6618 19.663 19.6355C18.6883 20.6092 17.542 21.38 16.2242 21.948C14.9065 22.516 13.4985 22.8 12.0002 22.8ZM12.0002 20.15C14.2754 20.15 16.2025 19.3604 17.7816 17.7814C19.3607 16.2023 20.1502 14.2752 20.1502 12C20.1502 9.72473 19.3607 7.7976 17.7816 6.21855C16.2025 4.63948 14.2754 3.84995 12.0002 3.84995C9.72498 3.84995 7.79785 4.63948 6.2188 6.21855C4.63973 7.7976 3.8502 9.72473 3.8502 12C3.8502 14.2752 4.63973 16.2023 6.2188 17.7814C7.79785 19.3604 9.72498 20.15 12.0002 20.15Z" fill="#535AF1"/>
</g>
</svg>
