<svg width="24" height="24" viewBox="0 0 24 24" fill="none" xmlns="http://www.w3.org/2000/svg">
<mask id="mask0_1823_21516" style="mask-type:alpha" maskUnits="userSpaceOnUse" x="0" y="0" width="24" height="24">
<rect width="24" height="24" fill="#D9D9D9"/>
</mask>
<g mask="url(#mask0_1823_21516)">
<path d="M11.996 21.25C11.3487 21.25 10.7959 21.0195 10.3375 20.5585C9.87919 20.0975 9.65002 19.5434 9.65002 18.896C9.65002 18.2487 9.88052 17.6958 10.3415 17.2375C10.8025 16.7792 11.3567 16.55 12.004 16.55C12.6513 16.55 13.2042 16.7805 13.6625 17.2415C14.1209 17.7025 14.35 18.2566 14.35 18.904C14.35 19.5513 14.1195 20.1042 13.6585 20.5625C13.1975 21.0208 12.6434 21.25 11.996 21.25ZM11.996 14.35C11.3487 14.35 10.7959 14.1195 10.3375 13.6585C9.87919 13.1975 9.65002 12.6434 9.65002 11.996C9.65002 11.3487 9.88052 10.7958 10.3415 10.3375C10.8025 9.87917 11.3567 9.65 12.004 9.65C12.6513 9.65 13.2042 9.88049 13.6625 10.3415C14.1209 10.8025 14.35 11.3566 14.35 12.004C14.35 12.6513 14.1195 13.2042 13.6585 13.6625C13.1975 14.1208 12.6434 14.35 11.996 14.35ZM11.996 7.45C11.3487 7.45 10.7959 7.21951 10.3375 6.75853C9.87919 6.29753 9.65002 5.74336 9.65002 5.09603C9.65002 4.44868 9.88052 3.89583 10.3415 3.4375C10.8025 2.97917 11.3567 2.75 12.004 2.75C12.6513 2.75 13.2042 2.98049 13.6625 3.44147C14.1209 3.90247 14.35 4.45664 14.35 5.10398C14.35 5.75133 14.1195 6.30417 13.6585 6.7625C13.1975 7.22083 12.6434 7.45 11.996 7.45Z" fill="#535AF1"/>
</g>
</svg>
